<?xml version="1.0" encoding="UTF-8" standalone="no"?>
<!-- Created with Inkscape (http://www.inkscape.org/) -->

<svg
   width="210mm"
   height="297mm"
   viewBox="0 0 210 297"
   version="1.1"
   id="svg5"
   inkscape:version="1.1.2 (0a00cf5339, 2022-02-04)"
   sodipodi:docname="drawing.svg"
   xmlns:inkscape="http://www.inkscape.org/namespaces/inkscape"
   xmlns:sodipodi="http://sodipodi.sourceforge.net/DTD/sodipodi-0.dtd"
   xmlns="http://www.w3.org/2000/svg"
   xmlns:svg="http://www.w3.org/2000/svg">
  <sodipodi:namedview
     id="namedview7"
     pagecolor="#ffffff"
     bordercolor="#666666"
     borderopacity="1.0"
     inkscape:pageshadow="2"
     inkscape:pageopacity="0.0"
     inkscape:pagecheckerboard="0"
     inkscape:document-units="mm"
     showgrid="false"
     inkscape:zoom="0.60343746"
     inkscape:cx="385.29262"
     inkscape:cy="535.26674"
     inkscape:window-width="1920"
     inkscape:window-height="1011"
     inkscape:window-x="0"
     inkscape:window-y="0"
     inkscape:window-maximized="1"
     inkscape:current-layer="layer1" />
  <defs
     id="defs2" />
  <g
     inkscape:label="Layer 1"
     inkscape:groupmode="layer"
     id="layer1">
    <path
       style="fill:#0457db;fill-opacity:1;stroke:#faac0a;stroke-width:15.465;stroke-linecap:butt;stroke-linejoin:miter;stroke-miterlimit:4;stroke-dasharray:none;stroke-opacity:1"
       d="m 30.925743,79.5412 0.7929,107.19782 65.12387,32.37381 L 163.16617,184.8996 162.28269,77.15274 127.56641,78.122618 93.587293,56.262772 64.525833,80.336889 Z"
       id="path238" />
    <g
       id="g34203"
       transform="translate(-28.695187,120.24396)">
      <path
         id="path3167"
         sodipodi:nodetypes="cccccccc"
         style="fill:#666666;stroke-width:0.264583"
         inkscape:connector-curvature="0"
         d="m 119.87217,-23.212319 -0.007,0.0087 -3.40043,0.160327 -3.58061,3.56182 h 3.95553 l -13.9364,82.925708 c 1.43504,-1.034706 4.46722,-5.686425 4.46722,-5.686425 1.93837,-10.745523 12.62142,-79.369708 12.50156,-80.970437 z" />
      <path
         id="path3221"
         style="fill:#999999;stroke:#2d2d2d;stroke-width:0.264583px"
         inkscape:connector-curvature="0"
         d="m 115.59386,-10.324465 2.68129,-2.8829 18.62772,-0.50874 -2.39903,3.052498 z" />
      <path
         id="path3221-6"
         style="fill:#999999;stroke:#2d2d2d;stroke-width:0.264583px"
         inkscape:connector-curvature="0"
         d="m 112.56173,6.9739935 3.6756,-2.8828999 25.53599,-0.5087409 -3.28877,3.0524979 z" />
      <path
         id="path3221-7"
         sodipodi:nodetypes="ccccc"
         style="fill:#999999;stroke:#2d2d2d;stroke-width:0.264583px"
         inkscape:connector-curvature="0"
         d="m 109.45553,24.949785 3.25887,-3.052498 32.16275,-0.169585 -2.48502,2.8829 z" />
      <path
         id="path3221-7-6"
         sodipodi:nodetypes="ccccc"
         style="fill:#999999;stroke:#2d2d2d;stroke-width:0.264583px"
         inkscape:connector-curvature="0"
         d="m 106.7753,43.010243 3.25887,-3.052498 38.08942,-0.169584 -0.79158,3.222095 z" />
      <path
         id="path3007"
         sodipodi:nodetypes="cccccccccccccccccccccccccccc"
         style="fill:#2d2d2d;stroke:#414141;stroke-width:0.264583px"
         inkscape:connector-curvature="0"
         d="m 112.93744,-19.481694 -16.922218,83.031541 6.946638,-0.131024 1.98633,-11.628438 41.76713,0.545942 c 0,0 1.24732,5.202502 2.37513,11.109589 l 7.25356,0.103727 -16.7812,-83.03154 h -7.01887 l 1.67206,8.997156 c -8.75559,-0.118457 -5.58826,-0.200586 -18.71239,0.149608 l 1.73508,-9.146645 z m 23.01055,14.2927919 2.49447,11.9996477 h -25.91859 l 1.99404,-11.6501332 z m 3.21442,18.3488541 2.63689,11.650133 h -32.385 l 2.22904,-11.650133 z m 3.46843,17.650089 2.39437,11.999648 H 106.6765 l 2.12551,-11.650133 z" />
      <path
         id="path3169-4"
         sodipodi:nodetypes="ccccccccc"
         style="fill:#666666;stroke-width:0.264583"
         inkscape:connector-curvature="0"
         d="m 136.00382,-23.212319 -3.33534,3.730625 h 6.46139 l 16.72034,83.36227 2.29333,-3.62241 -17.21061,-83.470749 c 0,0 -0.0273,0.06873 -0.38582,0.615315 l 0.24159,-0.615315 z" />
    </g>
    <path
       style="fill:#faac0a;fill-opacity:1;stroke:#faac0a;stroke-width:0;stroke-miterlimit:4;stroke-dasharray:none;stroke-opacity:1"
       d="m 67.85044,182.54877 c 0.104659,-0.44146 0.740852,-3.53169 1.413767,-6.86717 0.672915,-3.33548 4.362828,-21.45604 8.199811,-40.26791 3.836979,-18.81186 6.976329,-34.263 6.976329,-34.33585 0,-0.0729 0.802656,-0.13247 1.783681,-0.13247 2.121688,0 2.090242,-0.14151 1.070208,4.81594 -0.392409,1.90714 -0.713473,3.68492 -0.713473,3.9506 0,0.3996 1.649142,0.44594 9.542695,0.2682 5.248482,-0.11818 9.569472,-0.23285 9.602182,-0.25483 0.0327,-0.022 -0.30142,-2.00644 -0.74253,-4.40993 l -0.80203,-4.36998 3.06133,2.7e-4 3.06131,2.6e-4 8.16674,40.75672 c 4.4917,22.41619 8.23743,40.95738 8.32384,41.20263 0.11809,0.33517 -0.63386,0.44593 -3.02749,0.44593 h -3.18461 l -0.57944,-2.94308 c -0.31866,-1.61869 -0.83698,-4.08124 -1.15175,-5.47233 l -0.57235,-2.52926 -11.26956,-0.23545 c -6.19826,-0.12949 -15.712161,-0.23544 -21.142019,-0.23544 h -9.872472 l -0.578241,3.29981 c -0.318035,1.8149 -0.761926,4.3834 -0.986428,5.70778 l -0.408186,2.40797 h -3.1808 c -3.117167,0 -3.176994,-0.0161 -2.990514,-0.80266 z m 48.59609,-20.15559 c -0.10409,-0.53957 -0.63553,-3.34886 -1.18094,-6.24289 l -0.99166,-5.26185 h -12.36324 c -6.799766,0 -14.542628,0.10452 -17.206336,0.23227 l -4.843106,0.23227 -0.932505,5.02958 c -0.512876,2.76628 -1.020382,5.47105 -1.127789,6.01062 l -0.195284,0.98102 h 19.515055 19.515055 z m -3.2258,-18.01518 c -0.10592,-0.44146 -0.71303,-3.17049 -1.34911,-6.06451 l -1.15652,-5.26186 H 96.725332 82.735592 l -1.110221,5.79696 c -0.610624,3.18833 -1.109975,5.91736 -1.109673,6.06451 2.64e-4,0.14716 7.402391,0.26756 16.449082,0.26756 h 16.44854 z m -3.22903,-17.65844 c -0.1,-0.34336 -0.70604,-3.17693 -1.34689,-6.29681 l -1.16512,-5.67253 -10.83794,0.20457 c -5.960853,0.11252 -10.891147,0.2578 -10.9562,0.32286 -0.06506,0.065 -0.590155,2.80656 -1.166886,6.09224 l -1.048605,5.97396 h 13.351687 c 12.547284,0 13.340744,-0.0376 13.169954,-0.62429 z"
       id="path34242" />
  </g>
</svg>
